<svg width="404" height="378" viewBox="0 0 404 378" fill="none" xmlns="http://www.w3.org/2000/svg">
<path d="M205.981 363.756L199.831 360.828L196.537 362.292C189.802 365.22 179.48 368.734 172.453 370.491C161.179 373.273 153.127 374.225 139.364 374.225C125.601 374.225 117.549 373.273 106.275 370.491C88.4133 366.026 68.8676 356.875 55.1783 346.553C49.6147 342.307 35.3397 328.398 30.2886 322.248C15.6476 304.313 4.52041 278.544 0.933364 254.166C-0.311121 245.674 -0.311121 223.858 0.933364 215.367C3.12951 200.506 8.10745 184.766 14.9155 171.443C23.0413 155.63 29.4101 147.065 42.8066 134.107C52.2501 124.956 56.5691 121.589 65.4269 116.245C68.7944 114.122 71.869 112.072 72.0886 111.56C72.3814 111.047 72.9671 108.704 73.4795 106.289C75.6024 95.8933 84.2406 75.9079 91.5611 64.6341C102.029 48.4554 117.842 32.6428 133.947 22.2475C169.305 -0.592996 215.717 -6.30311 255.394 7.24011C285.628 17.6355 311.249 37.5477 328.965 64.5609C336.651 76.3472 344.484 94.722 347.705 108.485C349.243 115.147 350.853 125.981 350.926 129.715C351 132.277 351.366 132.936 354.294 135.205C359.345 139.158 372.083 152.482 376.987 158.997C385.406 170.125 390.164 178.983 395.655 193.771C401.657 209.73 404 222.76 404 240.989C404 259.217 401.657 272.248 395.655 288.207C387.748 309.291 379.769 321.736 363.81 337.695C354.294 347.212 346.827 353.141 337.017 358.998C323.182 367.27 304.734 373.932 288.336 376.494C281.748 377.519 261.031 378.398 256.858 377.812L248.073 376.714C235.482 375.177 219.743 370.345 205.981 363.756ZM397.778 240.989C397.778 205.557 383.942 172.614 358.393 147.431L351.878 140.915L351.366 144.429C351.146 146.333 350.926 149.554 350.926 151.604C350.853 164.927 344.997 186.743 337.017 202.921C329.551 218.148 321.571 229.203 309.273 241.355C300.415 250.066 293.387 255.63 284.31 261.047C275.452 266.245 275.745 265.952 273.695 273.053C268.644 290.623 259.127 309.144 248.439 322.248C243.095 328.764 228.967 342.526 223.037 346.919C220.548 348.749 216.01 351.677 213.008 353.434C209.934 355.191 207.518 356.875 207.445 357.095C207.445 357.9 220.402 363.317 227.942 365.66C235.189 367.929 242.876 369.686 250.27 370.857C257.59 371.955 277.063 371.736 285.262 370.565C324.207 364.708 357.734 342.819 378.159 310.023C390.97 289.378 397.778 265.44 397.778 240.989ZM193.389 356.729L190.607 354.898C175.161 344.503 158.837 327.153 149.1 310.901C140.901 297.285 133.142 275.616 131.604 262.219L131.165 257.826L125.967 254.166C123.112 252.189 117.183 247.065 112.791 242.819C99.9065 230.447 90.5363 217.49 83.0694 201.604C76.4077 187.548 73.3331 177.299 70.4781 160.096C69.4532 153.873 69.1604 132.936 70.0389 125.469L70.6245 120.491L68.5748 121.808C29.7029 146.552 6.13092 189.232 6.13092 234.766C6.13092 270.125 20.1131 303.727 45.2224 328.91C65.9394 349.554 91.1951 362.146 121.356 366.904C129.774 368.222 148.149 368.222 156.86 366.904C168.866 365.074 179.993 362.073 191.047 357.68C191.193 357.607 191.984 357.3 193.389 356.729ZM266.887 270.345C248.366 278.324 230.943 281.838 210.373 281.838C187.02 281.838 168.207 277.519 147.783 267.416C142.585 264.781 138.193 262.731 138.12 262.878C138.046 262.951 138.632 265.806 139.437 269.247C147.417 303.068 166.377 330.813 194.487 349.774C197.416 351.75 199.904 353.361 200.051 353.361C200.197 353.361 202.979 351.824 206.273 349.92C233.798 334.034 255.467 307.534 265.716 277.007C267.766 270.93 267.985 269.832 266.887 270.345ZM270.181 261.194L271.133 255.85C272.451 247.651 272.89 227.519 271.865 219.832C266.887 182.058 248 149.407 218.865 127.885L211.617 122.614L208.25 124.224C183.36 136.23 161.179 159.071 148.881 185.352C140.316 203.58 136.436 221.223 136.436 242.014V253.654L142.292 257.021C157.592 265.879 176.845 272.541 192.072 274.225L201.588 275.323C205.615 275.835 222.671 275.103 229.113 274.298C240.314 272.761 256.785 267.929 265.35 263.61L270.181 261.194ZM337.091 185.718C342.142 171.077 344.338 158.924 344.558 144.283L344.704 135.571L339.58 132.057C328.965 124.883 311.469 117.27 297.121 113.683C279.478 109.217 254.662 109.217 237.093 113.683C234.677 114.268 229.553 115.806 225.673 117.05L218.645 119.319L223.11 122.687C228.967 127.006 243.095 140.769 248.439 147.284C263.08 165.22 274.208 190.842 277.868 215.367C278.966 223.053 279.039 246.992 277.941 253.288C277.575 255.557 277.282 257.46 277.429 257.46C277.575 257.46 279.332 256.435 281.455 255.264C292.289 248.822 309.053 233.449 317.911 221.736C325.744 211.413 332.918 197.943 337.091 185.718ZM170.403 144.283C180.212 134.546 187.46 128.763 197.928 122.541L204.809 118.441L196.464 114.488C160.447 97.5039 119.818 97.1378 83.9478 113.609C77.1398 116.684 77.7254 115.659 76.4077 127.519C71.7226 170.857 89.5846 214.854 123.625 243.844L129.481 248.822L129.921 238.573C130.213 232.936 130.799 225.469 131.311 221.882C133.581 205.191 140.535 185.352 149.1 171.077C154.957 161.267 160.886 153.8 170.403 144.283ZM226.478 7.38653C199.099 4.16543 173.258 8.92386 148.002 21.8814C123.771 34.3998 103.713 54.4584 91.1951 78.6898C86.51 87.8406 81.7517 99.7001 80.434 105.776L79.9215 108.192L82.7765 107.021C89.2918 104.166 99.6137 100.725 106.275 99.0412C117.549 96.2594 125.601 95.3077 139.364 95.3077C146.392 95.3077 155.176 95.7469 158.763 96.3326C173.917 98.5288 189.363 103.507 203.418 110.681L212.203 115.22L219.889 112.365C228.967 108.997 238.923 106.435 248.073 105.117C256.565 103.873 277.648 103.873 286.14 105.117C303.636 107.68 323.109 114.561 337.75 123.346C341.117 125.396 343.972 127.006 344.045 126.933C344.118 126.86 343.752 123.858 343.24 120.198C341.776 109.876 337.31 95.3077 332.332 84.4731C312.86 42.3061 272.524 12.9502 226.478 7.38653Z" fill="#5BC3F8"/>
<path d="M158.89 64.144H163.81V71.248C162.818 71.936 161.666 72.464 160.354 72.832C159.042 73.2 157.754 73.384 156.49 73.384C154.698 73.384 153.09 73.016 151.666 72.28C150.242 71.528 149.122 70.488 148.306 69.16C147.506 67.816 147.106 66.296 147.106 64.6C147.106 62.904 147.506 61.392 148.306 60.064C149.122 58.72 150.25 57.68 151.69 56.944C153.146 56.192 154.786 55.816 156.61 55.816C158.258 55.816 159.73 56.096 161.026 56.656C162.338 57.2 163.426 58 164.29 59.056L160.666 62.248C159.61 61.016 158.354 60.4 156.898 60.4C155.65 60.4 154.658 60.776 153.922 61.528C153.186 62.28 152.818 63.304 152.818 64.6C152.818 65.864 153.178 66.88 153.898 67.648C154.634 68.416 155.61 68.8 156.826 68.8C157.546 68.8 158.234 68.664 158.89 68.392V64.144ZM171.935 59.632C174.239 59.632 175.999 60.152 177.215 61.192C178.431 62.216 179.039 63.8 179.039 65.944V73H173.999V71.272C173.375 72.584 172.135 73.24 170.279 73.24C169.239 73.24 168.351 73.064 167.615 72.712C166.895 72.344 166.343 71.856 165.959 71.248C165.591 70.624 165.407 69.928 165.407 69.16C165.407 67.864 165.903 66.88 166.895 66.208C167.887 65.536 169.391 65.2 171.407 65.2H173.591C173.415 64.176 172.591 63.664 171.119 63.664C170.527 63.664 169.927 63.76 169.319 63.952C168.711 64.128 168.191 64.376 167.759 64.696L166.031 61.12C166.783 60.656 167.687 60.296 168.743 60.04C169.815 59.768 170.879 59.632 171.935 59.632ZM171.911 69.976C172.295 69.976 172.639 69.872 172.943 69.664C173.247 69.456 173.471 69.144 173.615 68.728V67.816H172.271C171.167 67.816 170.615 68.184 170.615 68.92C170.615 69.224 170.727 69.48 170.951 69.688C171.191 69.88 171.511 69.976 171.911 69.976ZM198.76 59.632C200.344 59.632 201.608 60.12 202.552 61.096C203.512 62.072 203.992 63.544 203.992 65.512V73H198.568V66.448C198.568 64.944 198.08 64.192 197.104 64.192C196.592 64.192 196.176 64.384 195.856 64.768C195.552 65.152 195.4 65.76 195.4 66.592V73H189.976V66.448C189.976 64.944 189.488 64.192 188.512 64.192C188 64.192 187.584 64.384 187.264 64.768C186.96 65.152 186.808 65.76 186.808 66.592V73H181.384V59.872H186.544V61.096C187.52 60.12 188.76 59.632 190.264 59.632C191.144 59.632 191.936 59.8 192.64 60.136C193.344 60.456 193.92 60.952 194.368 61.624C194.896 60.984 195.536 60.496 196.288 60.16C197.04 59.808 197.864 59.632 198.76 59.632ZM220.547 66.424C220.547 66.504 220.523 66.928 220.475 67.696H211.355C211.547 68.192 211.867 68.576 212.315 68.848C212.763 69.104 213.323 69.232 213.995 69.232C214.571 69.232 215.051 69.16 215.435 69.016C215.835 68.872 216.267 68.624 216.731 68.272L219.563 71.128C218.283 72.536 216.371 73.24 213.827 73.24C212.243 73.24 210.851 72.952 209.651 72.376C208.451 71.784 207.523 70.968 206.867 69.928C206.211 68.888 205.883 67.72 205.883 66.424C205.883 65.112 206.203 63.944 206.843 62.92C207.499 61.88 208.387 61.072 209.507 60.496C210.643 59.92 211.915 59.632 213.323 59.632C214.651 59.632 215.859 59.896 216.947 60.424C218.051 60.952 218.923 61.728 219.563 62.752C220.219 63.776 220.547 65 220.547 66.424ZM213.371 63.328C212.811 63.328 212.347 63.48 211.979 63.784C211.611 64.088 211.371 64.52 211.259 65.08H215.483C215.371 64.536 215.131 64.112 214.763 63.808C214.395 63.488 213.931 63.328 213.371 63.328ZM223.918 60.592H218.998V56.2H234.502V60.592H229.582V73H223.918V60.592ZM248.461 66.424C248.461 66.504 248.437 66.928 248.389 67.696H239.269C239.461 68.192 239.781 68.576 240.229 68.848C240.677 69.104 241.237 69.232 241.909 69.232C242.485 69.232 242.965 69.16 243.349 69.016C243.749 68.872 244.181 68.624 244.645 68.272L247.477 71.128C246.197 72.536 244.285 73.24 241.741 73.24C240.157 73.24 238.765 72.952 237.565 72.376C236.365 71.784 235.437 70.968 234.781 69.928C234.125 68.888 233.797 67.72 233.797 66.424C233.797 65.112 234.117 63.944 234.757 62.92C235.413 61.88 236.301 61.072 237.421 60.496C238.557 59.92 239.829 59.632 241.237 59.632C242.565 59.632 243.773 59.896 244.861 60.424C245.965 60.952 246.837 61.728 247.477 62.752C248.133 63.776 248.461 65 248.461 66.424ZM241.285 63.328C240.725 63.328 240.261 63.48 239.893 63.784C239.525 64.088 239.285 64.52 239.173 65.08H243.397C243.285 64.536 243.045 64.112 242.677 63.808C242.309 63.488 241.845 63.328 241.285 63.328ZM257.229 73.24C255.741 73.24 254.405 72.952 253.221 72.376C252.053 71.8 251.133 70.992 250.461 69.952C249.805 68.912 249.477 67.736 249.477 66.424C249.477 65.112 249.805 63.944 250.461 62.92C251.133 61.88 252.053 61.072 253.221 60.496C254.405 59.92 255.741 59.632 257.229 59.632C258.829 59.632 260.197 59.976 261.333 60.664C262.469 61.352 263.253 62.304 263.685 63.52L259.485 65.584C258.973 64.432 258.213 63.856 257.205 63.856C256.565 63.856 256.029 64.08 255.597 64.528C255.181 64.976 254.973 65.608 254.973 66.424C254.973 67.256 255.181 67.896 255.597 68.344C256.029 68.792 256.565 69.016 257.205 69.016C258.213 69.016 258.973 68.44 259.485 67.288L263.685 69.352C263.253 70.568 262.469 71.52 261.333 72.208C260.197 72.896 258.829 73.24 257.229 73.24ZM274.058 59.632C275.674 59.632 276.97 60.12 277.946 61.096C278.938 62.072 279.434 63.544 279.434 65.512V73H274.01V66.448C274.01 64.944 273.474 64.192 272.402 64.192C271.794 64.192 271.298 64.408 270.914 64.84C270.546 65.256 270.362 65.92 270.362 66.832V73H264.938V55.192H270.362V60.928C271.37 60.064 272.602 59.632 274.058 59.632Z" fill="white"/>
<path d="M303.116 278.2V295H297.452V288.808H292.22V295H286.556V278.2H292.22V284.152H297.452V278.2H303.116ZM313.045 290.776H311.509V295H305.845V278.2H313.933C315.485 278.2 316.837 278.456 317.989 278.968C319.141 279.48 320.029 280.216 320.653 281.176C321.277 282.136 321.589 283.256 321.589 284.536C321.589 285.736 321.317 286.784 320.773 287.68C320.229 288.576 319.445 289.288 318.421 289.816L321.949 295H315.901L313.045 290.776ZM315.877 284.536C315.877 283.912 315.685 283.432 315.301 283.096C314.917 282.744 314.341 282.568 313.573 282.568H311.509V286.504H313.573C314.341 286.504 314.917 286.336 315.301 286C315.685 285.648 315.877 285.16 315.877 284.536ZM327.141 282.592H322.221V278.2H337.725V282.592H332.805V295H327.141V282.592ZM351.684 288.424C351.684 288.504 351.66 288.928 351.612 289.696H342.492C342.684 290.192 343.004 290.576 343.452 290.848C343.9 291.104 344.46 291.232 345.132 291.232C345.708 291.232 346.188 291.16 346.572 291.016C346.972 290.872 347.404 290.624 347.868 290.272L350.7 293.128C349.42 294.536 347.508 295.24 344.964 295.24C343.38 295.24 341.988 294.952 340.788 294.376C339.588 293.784 338.66 292.968 338.004 291.928C337.348 290.888 337.02 289.72 337.02 288.424C337.02 287.112 337.34 285.944 337.98 284.92C338.636 283.88 339.524 283.072 340.644 282.496C341.78 281.92 343.052 281.632 344.46 281.632C345.788 281.632 346.996 281.896 348.084 282.424C349.188 282.952 350.06 283.728 350.7 284.752C351.356 285.776 351.684 287 351.684 288.424ZM344.508 285.328C343.948 285.328 343.484 285.48 343.116 285.784C342.748 286.088 342.508 286.52 342.396 287.08H346.62C346.508 286.536 346.268 286.112 345.9 285.808C345.532 285.488 345.068 285.328 344.508 285.328ZM360.451 295.24C358.963 295.24 357.627 294.952 356.443 294.376C355.275 293.8 354.355 292.992 353.683 291.952C353.027 290.912 352.699 289.736 352.699 288.424C352.699 287.112 353.027 285.944 353.683 284.92C354.355 283.88 355.275 283.072 356.443 282.496C357.627 281.92 358.963 281.632 360.451 281.632C362.051 281.632 363.419 281.976 364.555 282.664C365.691 283.352 366.475 284.304 366.907 285.52L362.707 287.584C362.195 286.432 361.435 285.856 360.427 285.856C359.787 285.856 359.251 286.08 358.819 286.528C358.403 286.976 358.195 287.608 358.195 288.424C358.195 289.256 358.403 289.896 358.819 290.344C359.251 290.792 359.787 291.016 360.427 291.016C361.435 291.016 362.195 290.44 362.707 289.288L366.907 291.352C366.475 292.568 365.691 293.52 364.555 294.208C363.419 294.896 362.051 295.24 360.451 295.24ZM377.281 281.632C378.897 281.632 380.193 282.12 381.169 283.096C382.161 284.072 382.657 285.544 382.657 287.512V295H377.233V288.448C377.233 286.944 376.697 286.192 375.625 286.192C375.017 286.192 374.521 286.408 374.137 286.84C373.769 287.256 373.585 287.92 373.585 288.832V295H368.161V277.192H373.585V282.928C374.593 282.064 375.825 281.632 377.281 281.632Z" fill="white"/>
<path d="M47.4571 284.728V289H33.4891V272.2H47.1451V276.472H39.0571V278.44H46.1611V282.52H39.0571V284.728H47.4571ZM63.9895 271.192V289H58.8295V287.92C58.0455 288.8 56.8455 289.24 55.2295 289.24C54.0775 289.24 53.0135 288.968 52.0375 288.424C51.0775 287.864 50.3095 287.064 49.7335 286.024C49.1735 284.984 48.8935 283.784 48.8935 282.424C48.8935 281.064 49.1735 279.872 49.7335 278.848C50.3095 277.808 51.0775 277.016 52.0375 276.472C53.0135 275.912 54.0775 275.632 55.2295 275.632C56.6855 275.632 57.7975 276.008 58.5655 276.76V271.192H63.9895ZM56.5255 285.016C57.1495 285.016 57.6615 284.792 58.0615 284.344C58.4615 283.88 58.6615 283.24 58.6615 282.424C58.6615 281.608 58.4615 280.976 58.0615 280.528C57.6615 280.08 57.1495 279.856 56.5255 279.856C55.9015 279.856 55.3895 280.08 54.9895 280.528C54.5895 280.976 54.3895 281.608 54.3895 282.424C54.3895 283.24 54.5895 283.88 54.9895 284.344C55.3895 284.792 55.9015 285.016 56.5255 285.016ZM70.2074 276.592H65.2874V272.2H80.7914V276.592H75.8714V289H70.2074V276.592ZM94.75 282.424C94.75 282.504 94.726 282.928 94.678 283.696H85.558C85.75 284.192 86.07 284.576 86.518 284.848C86.966 285.104 87.526 285.232 88.198 285.232C88.774 285.232 89.254 285.16 89.638 285.016C90.038 284.872 90.47 284.624 90.934 284.272L93.766 287.128C92.486 288.536 90.574 289.24 88.03 289.24C86.446 289.24 85.054 288.952 83.854 288.376C82.654 287.784 81.726 286.968 81.07 285.928C80.414 284.888 80.086 283.72 80.086 282.424C80.086 281.112 80.406 279.944 81.046 278.92C81.702 277.88 82.59 277.072 83.71 276.496C84.846 275.92 86.118 275.632 87.526 275.632C88.854 275.632 90.062 275.896 91.15 276.424C92.254 276.952 93.126 277.728 93.766 278.752C94.422 279.776 94.75 281 94.75 282.424ZM87.574 279.328C87.014 279.328 86.55 279.48 86.182 279.784C85.814 280.088 85.574 280.52 85.462 281.08H89.686C89.574 280.536 89.334 280.112 88.966 279.808C88.598 279.488 88.134 279.328 87.574 279.328ZM103.518 289.24C102.03 289.24 100.694 288.952 99.5097 288.376C98.3417 287.8 97.4217 286.992 96.7497 285.952C96.0937 284.912 95.7657 283.736 95.7657 282.424C95.7657 281.112 96.0937 279.944 96.7497 278.92C97.4217 277.88 98.3417 277.072 99.5097 276.496C100.694 275.92 102.03 275.632 103.518 275.632C105.118 275.632 106.486 275.976 107.622 276.664C108.758 277.352 109.542 278.304 109.974 279.52L105.774 281.584C105.262 280.432 104.502 279.856 103.494 279.856C102.854 279.856 102.318 280.08 101.886 280.528C101.47 280.976 101.262 281.608 101.262 282.424C101.262 283.256 101.47 283.896 101.886 284.344C102.318 284.792 102.854 285.016 103.494 285.016C104.502 285.016 105.262 284.44 105.774 283.288L109.974 285.352C109.542 286.568 108.758 287.52 107.622 288.208C106.486 288.896 105.118 289.24 103.518 289.24ZM120.347 275.632C121.963 275.632 123.259 276.12 124.235 277.096C125.227 278.072 125.723 279.544 125.723 281.512V289H120.299V282.448C120.299 280.944 119.763 280.192 118.691 280.192C118.083 280.192 117.587 280.408 117.203 280.84C116.835 281.256 116.651 281.92 116.651 282.832V289H111.227V271.192H116.651V276.928C117.659 276.064 118.891 275.632 120.347 275.632Z" fill="white"/>
<path d="M184.083 195.384C182.307 195.384 180.707 195.016 179.283 194.28C177.859 193.528 176.739 192.488 175.923 191.16C175.123 189.816 174.723 188.296 174.723 186.6C174.723 184.904 175.123 183.392 175.923 182.064C176.739 180.72 177.859 179.68 179.283 178.944C180.707 178.192 182.307 177.816 184.083 177.816C185.715 177.816 187.171 178.104 188.451 178.68C189.731 179.256 190.787 180.088 191.619 181.176L188.043 184.368C187.003 183.056 185.779 182.4 184.371 182.4C183.187 182.4 182.235 182.784 181.515 183.552C180.795 184.304 180.435 185.32 180.435 186.6C180.435 187.88 180.795 188.904 181.515 189.672C182.235 190.424 183.187 190.8 184.371 190.8C185.779 190.8 187.003 190.144 188.043 188.832L191.619 192.024C190.787 193.112 189.731 193.944 188.451 194.52C187.171 195.096 185.715 195.384 184.083 195.384ZM199.671 195.24C198.215 195.24 196.903 194.952 195.735 194.376C194.583 193.784 193.679 192.976 193.023 191.952C192.367 190.912 192.039 189.736 192.039 188.424C192.039 187.112 192.367 185.944 193.023 184.92C193.679 183.88 194.583 183.072 195.735 182.496C196.903 181.92 198.215 181.632 199.671 181.632C201.143 181.632 202.455 181.92 203.607 182.496C204.775 183.072 205.679 183.88 206.319 184.92C206.975 185.944 207.303 187.112 207.303 188.424C207.303 189.736 206.975 190.912 206.319 191.952C205.679 192.976 204.775 193.784 203.607 194.376C202.455 194.952 201.143 195.24 199.671 195.24ZM199.671 191.016C200.295 191.016 200.807 190.792 201.207 190.344C201.607 189.88 201.807 189.24 201.807 188.424C201.807 187.608 201.607 186.976 201.207 186.528C200.807 186.08 200.295 185.856 199.671 185.856C199.047 185.856 198.535 186.08 198.135 186.528C197.735 186.976 197.535 187.608 197.535 188.424C197.535 189.24 197.735 189.88 198.135 190.344C198.535 190.792 199.047 191.016 199.671 191.016ZM223.521 177.192V195H218.361V193.92C217.577 194.8 216.377 195.24 214.761 195.24C213.609 195.24 212.545 194.968 211.569 194.424C210.609 193.864 209.841 193.064 209.265 192.024C208.705 190.984 208.425 189.784 208.425 188.424C208.425 187.064 208.705 185.872 209.265 184.848C209.841 183.808 210.609 183.016 211.569 182.472C212.545 181.912 213.609 181.632 214.761 181.632C216.217 181.632 217.329 182.008 218.097 182.76V177.192H223.521ZM216.057 191.016C216.681 191.016 217.193 190.792 217.593 190.344C217.993 189.88 218.193 189.24 218.193 188.424C218.193 187.608 217.993 186.976 217.593 186.528C217.193 186.08 216.681 185.856 216.057 185.856C215.433 185.856 214.921 186.08 214.521 186.528C214.121 186.976 213.921 187.608 213.921 188.424C213.921 189.24 214.121 189.88 214.521 190.344C214.921 190.792 215.433 191.016 216.057 191.016ZM239.891 188.424C239.891 188.504 239.867 188.928 239.819 189.696H230.699C230.891 190.192 231.211 190.576 231.659 190.848C232.107 191.104 232.667 191.232 233.339 191.232C233.915 191.232 234.395 191.16 234.779 191.016C235.179 190.872 235.611 190.624 236.075 190.272L238.907 193.128C237.627 194.536 235.715 195.24 233.171 195.24C231.587 195.24 230.195 194.952 228.995 194.376C227.795 193.784 226.867 192.968 226.211 191.928C225.555 190.888 225.227 189.72 225.227 188.424C225.227 187.112 225.547 185.944 226.187 184.92C226.843 183.88 227.731 183.072 228.851 182.496C229.987 181.92 231.259 181.632 232.667 181.632C233.995 181.632 235.203 181.896 236.291 182.424C237.395 182.952 238.267 183.728 238.907 184.752C239.563 185.776 239.891 187 239.891 188.424ZM232.715 185.328C232.155 185.328 231.691 185.48 231.323 185.784C230.955 186.088 230.715 186.52 230.603 187.08H234.827C234.715 186.536 234.475 186.112 234.107 185.808C233.739 185.488 233.275 185.328 232.715 185.328ZM246.738 195.24C245.618 195.24 244.514 195.12 243.426 194.88C242.338 194.64 241.458 194.328 240.786 193.944L242.274 190.368C242.882 190.736 243.602 191.024 244.434 191.232C245.266 191.44 246.074 191.544 246.858 191.544C247.482 191.544 247.914 191.496 248.154 191.4C248.41 191.288 248.538 191.128 248.538 190.92C248.538 190.712 248.378 190.568 248.058 190.488C247.754 190.408 247.25 190.328 246.546 190.248C245.474 190.12 244.562 189.96 243.81 189.768C243.058 189.56 242.394 189.168 241.818 188.592C241.258 188.016 240.978 187.192 240.978 186.12C240.978 185.272 241.234 184.512 241.746 183.84C242.258 183.168 243.018 182.632 244.026 182.232C245.05 181.832 246.274 181.632 247.698 181.632C248.69 181.632 249.658 181.728 250.602 181.92C251.562 182.096 252.378 182.36 253.05 182.712L251.562 186.288C250.41 185.648 249.146 185.328 247.77 185.328C246.586 185.328 245.994 185.536 245.994 185.952C245.994 186.16 246.154 186.312 246.474 186.408C246.794 186.488 247.298 186.568 247.986 186.648C249.058 186.776 249.962 186.944 250.698 187.152C251.45 187.36 252.106 187.752 252.666 188.328C253.242 188.904 253.53 189.728 253.53 190.8C253.53 191.616 253.274 192.36 252.762 193.032C252.25 193.704 251.482 194.24 250.458 194.64C249.434 195.04 248.194 195.24 246.738 195.24ZM191.419 211.472V214.352H198.427V218.624H191.419V224H185.755V207.2H199.411V211.472H191.419ZM207.734 224.24C206.278 224.24 204.966 223.952 203.798 223.376C202.646 222.784 201.742 221.976 201.086 220.952C200.43 219.912 200.102 218.736 200.102 217.424C200.102 216.112 200.43 214.944 201.086 213.92C201.742 212.88 202.646 212.072 203.798 211.496C204.966 210.92 206.278 210.632 207.734 210.632C209.206 210.632 210.518 210.92 211.67 211.496C212.838 212.072 213.742 212.88 214.382 213.92C215.038 214.944 215.366 216.112 215.366 217.424C215.366 218.736 215.038 219.912 214.382 220.952C213.742 221.976 212.838 222.784 211.67 223.376C210.518 223.952 209.206 224.24 207.734 224.24ZM207.734 220.016C208.358 220.016 208.87 219.792 209.27 219.344C209.67 218.88 209.87 218.24 209.87 217.424C209.87 216.608 209.67 215.976 209.27 215.528C208.87 215.08 208.358 214.856 207.734 214.856C207.11 214.856 206.598 215.08 206.198 215.528C205.798 215.976 205.598 216.608 205.598 217.424C205.598 218.24 205.798 218.88 206.198 219.344C206.598 219.792 207.11 220.016 207.734 220.016ZM222.223 212.288C223.183 211.184 224.599 210.632 226.471 210.632V215.432C226.039 215.368 225.639 215.336 225.271 215.336C223.415 215.336 222.487 216.28 222.487 218.168V224H217.063V210.872H222.223V212.288ZM242.411 206.192V224H237.251V222.92C236.467 223.8 235.267 224.24 233.651 224.24C232.499 224.24 231.435 223.968 230.459 223.424C229.499 222.864 228.731 222.064 228.155 221.024C227.595 219.984 227.315 218.784 227.315 217.424C227.315 216.064 227.595 214.872 228.155 213.848C228.731 212.808 229.499 212.016 230.459 211.472C231.435 210.912 232.499 210.632 233.651 210.632C235.107 210.632 236.219 211.008 236.987 211.76V206.192H242.411ZM234.947 220.016C235.571 220.016 236.083 219.792 236.483 219.344C236.883 218.88 237.083 218.24 237.083 217.424C237.083 216.608 236.883 215.976 236.483 215.528C236.083 215.08 235.571 214.856 234.947 214.856C234.323 214.856 233.811 215.08 233.411 215.528C233.011 215.976 232.811 216.608 232.811 217.424C232.811 218.24 233.011 218.88 233.411 219.344C233.811 219.792 234.323 220.016 234.947 220.016Z" fill="white"/>
</svg>
