<svg width="70" height="70" viewBox="0 0 70 70" fill="none" xmlns="http://www.w3.org/2000/svg">
<path d="M68.409 27.0454C69.2884 27.0454 70 26.3338 70 25.4544C70 24.575 69.2884 23.8636 68.409 23.8636H63.6363V17.4999H68.409C69.2884 17.4999 70 16.7883 70 15.909C70 15.0296 69.2884 14.318 68.409 14.318H63.6363V12.7272C63.6363 9.21761 60.7824 6.36353 57.2726 6.36353H55.6817V1.59081C55.6817 0.711583 54.9703 0 54.0909 0C53.2115 0 52.4999 0.711583 52.4999 1.59096V6.36368H46.1362V1.59096C46.1362 0.711583 45.4248 0 44.5454 0C43.6661 0 42.9545 0.711583 42.9545 1.59096V6.36368H36.5908V1.59096C36.5908 0.711583 35.8794 0 35 0C34.1206 0 33.409 0.711583 33.409 1.59096V6.36368H27.0454V1.59096C27.0454 0.711583 26.3339 0 25.4546 0C24.5752 0 23.8636 0.711583 23.8636 1.59096V6.36368H17.4999V1.59096C17.4999 0.711583 16.7885 0 15.9091 0C15.0297 0 14.3182 0.711583 14.3182 1.59096V6.36368H12.7272C9.21761 6.36368 6.36353 9.21761 6.36353 12.7274V14.3182H1.59081C0.711583 14.3182 0 15.0297 0 15.9091C0 16.7885 0.711583 17.5001 1.59096 17.5001H6.36368V23.8636H1.59096C0.711583 23.8636 0 24.5752 0 25.4546C0 26.3339 0.711583 27.0455 1.59096 27.0455H6.36368V33.409H1.59096C0.711583 33.409 0 34.1206 0 35C0 35.8794 0.711583 36.591 1.59096 36.591H6.36368V42.9545H1.59096C0.711583 42.9545 0 43.6661 0 44.5454C0 45.4248 0.711583 46.1364 1.59096 46.1364H6.36368V52.4999H1.59096C0.711583 52.4999 0 53.2115 0 54.0909C0 54.9703 0.711583 55.6818 1.59096 55.6818H6.36368V57.2726C6.36368 60.7822 9.21761 63.6363 12.7274 63.6363H14.3182V68.409C14.3182 69.2884 15.0297 70 15.9091 70C16.7885 70 17.5001 69.2884 17.5001 68.409V63.6363H23.8636V68.409C23.8636 69.2884 24.5752 70 25.4546 70C26.3339 70 27.0455 69.2884 27.0455 68.409V63.6363H33.409V68.409C33.409 69.2884 34.1206 70 35 70C35.8794 70 36.591 69.2884 36.591 68.409V63.6363H42.9545V68.409C42.9545 69.2884 43.6661 70 44.5454 70C45.4248 70 46.1364 69.2884 46.1364 68.409V63.6363H52.4999V68.409C52.4999 69.2884 53.2115 70 54.0909 70C54.9703 70 55.6818 69.2884 55.6818 68.409V63.6363H57.2726C60.7822 63.6363 63.6363 60.7824 63.6363 57.2726V55.6817H68.409C69.2884 55.6817 70 54.9701 70 54.0907C70 53.2114 69.2884 52.4998 68.409 52.4998H63.6363V46.1361H68.409C69.2884 46.1361 70 45.4245 70 44.5451C70 43.6658 69.2884 42.9542 68.409 42.9542H63.6363V36.5905H68.409C69.2884 36.5905 70 35.8789 70 34.9995C70 34.1202 69.2884 33.409 68.409 33.409H63.6363V27.0454H68.409Z" fill="#303C42"/>
<path d="M60.2326 57.0785C60.2326 58.8172 58.8172 60.2326 57.0785 60.2326H12.9215C11.1828 60.2326 9.76746 58.8172 9.76746 57.0785V12.9215C9.76746 11.1828 11.1828 9.76744 12.9215 9.76744H57.0785C58.8172 9.76744 60.2326 11.1828 60.2326 12.9215V57.0785Z" fill="#7CB342"/>
<path d="M56.1628 13.0233H13.8373C12.9375 13.0233 12.2093 13.7384 12.2093 14.6221V56.1918C12.2093 57.0756 12.9375 57.7907 13.8373 57.7907H56.1628C57.0626 57.7907 57.7907 57.0756 57.7907 56.1918V14.6221C57.7907 13.7384 57.0626 13.0233 56.1628 13.0233Z" fill="#303C42"/>
<path d="M53.7209 16.2791H16.2791V54.5349H53.7209V16.2791Z" fill="#F2F2F2"/>
<path d="M54.0909 16.0226H15.9091V54.2044H54.0909V16.0226Z" fill="#F2F2F2"/>
<path d="M56.6383 13.0233C56.8888 13.3045 57.0528 13.6665 57.0528 14.0736V55.4575C57.0528 56.3373 56.3417 57.0492 55.4628 57.0492H14.1254C13.6961 57.0492 13.31 56.8751 13.024 56.5989L13.0233 56.5996L16.652 60.2326H57.0528C58.8057 60.2326 60.2326 58.8041 60.2326 57.0492V16.6217L56.6383 13.0233Z" fill="url(#paint0_linear)"/>
<path d="M25.2328 40.1693H31.7444V49.6919C31.7444 50.3972 32.2213 51.0187 32.9177 51.2155C33.0669 51.259 33.2196 51.2791 33.3722 51.2791C33.919 51.2791 34.4405 51.0109 34.7457 50.5443L46.1409 33.0862C46.4588 32.5964 46.4811 31.978 46.195 31.4696C45.9088 30.9628 45.362 30.6466 44.7674 30.6466H38.2558V21.124C38.2558 20.4187 37.7789 19.7972 37.0825 19.6004C36.3958 19.3989 35.6454 19.6733 35.2544 20.2714L23.8591 37.7295C23.5412 38.2194 23.5189 38.8377 23.8051 39.3462C24.0914 39.8531 24.6382 40.1693 25.2328 40.1693Z" fill="#303C42"/>
<path d="M35 26.0465V31.783C35 32.6721 35.6972 33.3916 36.5587 33.3916H41.5117L35 43.9535V38.217C35 37.3279 34.3029 36.6084 33.4413 36.6084H28.4884L35 26.0465Z" fill="#FFCA28"/>
<path d="M24.4276 39.9338L24.4186 39.9472L31.6278 47.2025V40.2423H25.3154C24.9858 40.2422 24.6885 40.1175 24.4276 39.9338ZM37.6875 20.3488L37.6715 20.3725C37.8199 20.6163 37.9401 20.8835 37.9401 21.1841V30.7132H44.2525C44.8289 30.7132 45.359 31.0296 45.6364 31.5367C45.9138 32.0455 45.8922 32.6643 45.584 33.1544L34.5374 50.6242C34.2415 51.091 33.736 51.3595 33.2059 51.3595C33.058 51.3595 32.91 51.3394 32.7652 51.2959L35.9837 54.5349H53.7209V36.485L37.6875 20.3488Z" fill="url(#paint1_linear)"/>
<path d="M68.409 27.0454C69.2884 27.0454 70 26.3338 70 25.4544C70 24.575 69.2884 23.8636 68.409 23.8636H63.6363V17.4999H68.409C69.2884 17.4999 70 16.7883 70 15.909C70 15.0296 69.2884 14.318 68.409 14.318H63.6363V12.7272C63.6363 9.21761 60.7824 6.36353 57.2726 6.36353H55.6817V1.59081C55.6817 0.711583 54.9703 0 54.0909 0C53.2115 0 52.4999 0.711583 52.4999 1.59096V6.36368H46.1362V1.59096C46.1362 0.711583 45.4248 0 44.5454 0C43.6661 0 42.9545 0.711583 42.9545 1.59096V6.36368H36.5908V1.59096C36.5908 0.711583 35.8794 0 35 0C34.1206 0 33.409 0.711583 33.409 1.59096V6.36368H27.0454V1.59096C27.0454 0.711583 26.3339 0 25.4546 0C24.5752 0 23.8636 0.711583 23.8636 1.59096V6.36368H17.4999V1.59096C17.4999 0.711583 16.7885 0 15.9091 0C15.0297 0 14.3182 0.711583 14.3182 1.59096V6.36368H12.7272C9.21761 6.36368 6.36353 9.21761 6.36353 12.7274V14.3182H1.59081C0.711583 14.3182 0 15.0297 0 15.9091C0 16.7885 0.711583 17.5001 1.59096 17.5001H6.36368V23.8636H1.59096C0.711583 23.8636 0 24.5752 0 25.4546C0 26.3339 0.711583 27.0455 1.59096 27.0455H6.36368V33.409H1.59096C0.711583 33.409 0 34.1206 0 35C0 35.8794 0.711583 36.591 1.59096 36.591H6.36368V42.9545H1.59096C0.711583 42.9545 0 43.6661 0 44.5454C0 45.4248 0.711583 46.1364 1.59096 46.1364H6.36368V52.4999H1.59096C0.711583 52.4999 0 53.2115 0 54.0909C0 54.9703 0.711583 55.6818 1.59096 55.6818H6.36368V57.2726C6.36368 60.7822 9.21761 63.6363 12.7274 63.6363H14.3182V68.409C14.3182 69.2884 15.0297 70 15.9091 70C16.7885 70 17.5001 69.2884 17.5001 68.409V63.6363H23.8636V68.409C23.8636 69.2884 24.5752 70 25.4546 70C26.3339 70 27.0455 69.2884 27.0455 68.409V63.6363H33.409V68.409C33.409 69.2884 34.1206 70 35 70C35.8794 70 36.591 69.2884 36.591 68.409V63.6363H42.9545V68.409C42.9545 69.2884 43.6661 70 44.5454 70C45.4248 70 46.1364 69.2884 46.1364 68.409V63.6363H52.4999V68.409C52.4999 69.2884 53.2115 70 54.0909 70C54.9703 70 55.6818 69.2884 55.6818 68.409V63.6363H57.2726C60.7822 63.6363 63.6363 60.7824 63.6363 57.2726V55.6817H68.409C69.2884 55.6817 70 54.9701 70 54.0907C70 53.2114 69.2884 52.4998 68.409 52.4998H63.6363V46.1361H68.409C69.2884 46.1361 70 45.4245 70 44.5451C70 43.6658 69.2884 42.9542 68.409 42.9542H63.6363V36.5905H68.409C69.2884 36.5905 70 35.8789 70 34.9995C70 34.1202 69.2884 33.409 68.409 33.409H63.6363V27.0454H68.409Z" fill="url(#paint2_linear)"/>
<defs>
<linearGradient id="paint0_linear" x1="34.7984" y1="34.7835" x2="59.3333" y2="59.2689" gradientUnits="userSpaceOnUse">
<stop stop-opacity="0.1"/>
<stop offset="1" stop-opacity="0"/>
</linearGradient>
<linearGradient id="paint1_linear" x1="28.7701" y1="29.3337" x2="53.9364" y2="54.3208" gradientUnits="userSpaceOnUse">
<stop stop-opacity="0.1"/>
<stop offset="1" stop-opacity="0"/>
</linearGradient>
<linearGradient id="paint2_linear" x1="-1.19615" y1="18.1234" x2="71.1967" y2="51.8827" gradientUnits="userSpaceOnUse">
<stop stop-color="white" stop-opacity="0.2"/>
<stop offset="1" stop-color="white" stop-opacity="0"/>
</linearGradient>
</defs>
</svg>
