<svg width="56" height="56" viewBox="0 0 56 56" fill="none" xmlns="http://www.w3.org/2000/svg">
<g clip-path="url(#clip0)">
<path d="M55.6271 45.4453L45.4453 55.6271C45.2067 55.8658 44.8836 56 44.5454 56H5.09095C2.28447 56 0 53.7168 0 50.909V5.09083C0 2.28315 2.28447 -0.00012207 5.09095 -0.00012207H50.9092C53.7157 -0.00012207 56.0001 2.28304 56.0001 5.09083V44.5454C56 44.8835 55.8658 45.2067 55.6271 45.4453Z" fill="#303C42"/>
<path d="M12.7273 53.4546H40.7274V38.1819C40.7274 36.7787 39.5863 35.6364 38.182 35.6364H15.2727C13.8682 35.6364 12.7273 36.7787 12.7273 38.1819V53.4546Z" fill="#F2F2F2"/>
<path d="M45.8182 25.4545H10.1818V2.54543H45.8182V25.4545Z" fill="#F2F2F2"/>
<path d="M45.8182 25.4545H10.1818V20.3636H45.8182V25.4545Z" fill="#35A0DA"/>
<path d="M53.4546 5.09085C53.4546 3.68766 52.3136 2.54543 50.9092 2.54543H48.3638V26.7273C48.3638 27.4308 47.7945 28.0001 47.091 28.0001H8.90915C8.20565 28.0001 7.63638 27.4308 7.63638 26.7273V2.54543H5.09096C3.68647 2.54543 2.54555 3.68766 2.54555 5.09085V50.9091C2.54555 52.3122 3.68659 53.4545 5.09096 53.4545H10.1819V38.1817C10.1818 35.3741 12.4663 33.0909 15.2727 33.0909H38.1819C40.9883 33.0909 43.2728 35.3741 43.2728 38.1819V53.4546H44.0186L53.4546 44.0184V5.09085Z" fill="#4FC3F7"/>
<path d="M31.8183 38.1818H36.9092C37.6127 38.1818 38.182 38.7511 38.182 39.4546V49.6364C38.182 50.3399 37.6127 50.9092 36.9092 50.9092H31.8183C31.1148 50.9092 30.5455 50.3399 30.5455 49.6364V39.4546C30.5455 38.751 31.1148 38.1818 31.8183 38.1818Z" fill="#303C42"/>
<path d="M35.6363 48.3636H33.0909V40.7273H35.6363V48.3636Z" fill="#4FC3F7"/>
<path d="M55.6271 45.4453L45.4453 55.6271C45.2067 55.8658 44.8836 56 44.5454 56H5.09095C2.28447 56 0 53.7168 0 50.909V5.09083C0 2.28315 2.28447 -0.00012207 5.09095 -0.00012207H50.9092C53.7157 -0.00012207 56.0001 2.28304 56.0001 5.09083V44.5454C56 44.8835 55.8658 45.2067 55.6271 45.4453Z" fill="url(#paint0_linear)"/>
</g>
<defs>
<linearGradient id="paint0_linear" x1="-4.84942" y1="41.6341" x2="59.5622" y2="11.5996" gradientUnits="userSpaceOnUse">
<stop stop-color="white" stop-opacity="0.2"/>
<stop offset="1" stop-color="white" stop-opacity="0"/>
</linearGradient>
<clipPath id="clip0">
<rect width="56" height="56" transform="matrix(1 0 0 -1 0 56)" fill="white"/>
</clipPath>
</defs>
</svg>
