<svg width="71" height="71" viewBox="0 0 71 71" fill="none" xmlns="http://www.w3.org/2000/svg">
<path d="M64.3322 2.95829H6.66776C2.99018 2.95829 0 5.94847 0 9.62619C0 10.2473 0.0866699 10.8656 0.257098 11.4607L5.0557 28.2487C5.3899 29.4228 6.09851 30.4057 6.99835 31.1503C6.33356 31.9263 5.91657 32.9211 5.91657 34.0209V63.6042C5.91657 66.0512 7.90707 68.0417 10.3541 68.0417H60.6458C63.0928 68.0417 65.0833 66.0512 65.0833 63.6042V34.0208C65.0833 32.9211 64.6663 31.9266 64.0018 31.1506C64.9018 30.4063 65.6102 29.4242 65.9443 28.2515L70.7429 11.4607C70.9133 10.8655 71 10.2473 71 9.62619C71 5.94847 68.01 2.95829 64.3322 2.95829Z" fill="#303C42"/>
<path d="M39.9375 63.6042H31.0625C30.2449 63.6042 29.5833 64.2658 29.5833 65.0834H26.625V56.2084H44.375V65.0834H41.4167C41.4167 64.2658 40.7551 63.6042 39.9375 63.6042Z" fill="#F2F2F2"/>
<path d="M62.125 63.6042C62.125 64.4189 61.4605 65.0834 60.6458 65.0834H47.3333V54.7292C47.3333 53.9116 46.6717 53.25 45.8541 53.25H25.1458C24.3282 53.25 23.6666 53.9116 23.6666 54.7292V65.0834H10.3541C9.53936 65.0834 8.87485 64.4189 8.87485 63.6042V34.0208C8.87485 33.2061 9.53936 32.5416 10.3541 32.5416H10.7441H60.2558H60.6459C61.4606 32.5416 62.1251 33.2061 62.1251 34.0208V63.6042H62.125Z" fill="#F2F2F2"/>
<path opacity="0.5" d="M10.3542 63.6042V34.0208C10.3542 33.2061 11.0187 32.5416 11.8334 32.5416H10.7443H10.3542C9.53952 32.5416 8.875 33.2061 8.875 34.0208V63.6041C8.875 64.4188 9.53952 65.0833 10.3542 65.0833H11.8334C11.0186 65.0833 10.3542 64.4189 10.3542 63.6042Z" fill="white"/>
<path d="M67.9001 10.646L63.1015 27.4397C62.7404 28.7022 61.5703 29.5833 60.2558 29.5833H10.7442C9.42968 29.5833 8.25957 28.7022 7.89847 27.4368L3.09987 10.646C3.00737 10.3166 2.95828 9.97286 2.95828 9.62618C2.95828 7.58077 4.62235 5.91671 6.66776 5.91671H64.3321C66.3775 5.91671 68.0416 7.58077 68.0416 9.62618C68.0417 9.97286 67.9926 10.3166 67.9001 10.646Z" fill="#5C6671"/>
<path d="M67.9001 10.646L63.1015 27.4397C62.7404 28.7022 61.5703 29.5833 60.2558 29.5833H10.7442C9.42968 29.5833 8.25957 28.7022 7.89847 27.4368L3.09987 10.646C3.00737 10.3166 2.95828 9.97286 2.95828 9.62618C2.95828 7.58077 4.62235 5.91671 6.66776 5.91671H64.3321C66.3775 5.91671 68.0416 7.58077 68.0416 9.62618C68.0417 9.97286 67.9926 10.3166 67.9001 10.646Z" fill="url(#paint0_linear)"/>
<path d="M67.9001 10.646L63.1015 27.4397C62.7404 28.7022 61.5703 29.5833 60.2558 29.5833H10.7442C9.42968 29.5833 8.25957 28.7022 7.89847 27.4368L3.09987 10.646C3.00737 10.3166 2.95828 9.97286 2.95828 9.62618C2.95828 7.58077 4.62235 5.91671 6.66776 5.91671H64.3321C66.3775 5.91671 68.0416 7.58077 68.0416 9.62618C68.0417 9.97286 67.9926 10.3166 67.9001 10.646Z" fill="url(#paint1_linear)"/>
<path d="M60.6458 32.5417H10.3542C9.94679 32.5417 9.57709 32.7078 9.30917 32.9758L29.5833 53.25H45.8541C46.6717 53.25 47.3333 53.9116 47.3333 54.7292V65.0834H60.6458C61.4605 65.0834 62.125 64.4189 62.125 63.6042V34.0208C62.125 33.2061 61.4605 32.5417 60.6458 32.5417Z" fill="url(#paint2_linear)"/>
<path d="M44.375 56.2083H32.5417L39.9375 63.6042C40.7551 63.6042 41.4167 64.2658 41.4167 65.0834H44.375V56.2083Z" fill="url(#paint3_linear)"/>
<path d="M60.6458 32.5417H10.3542C9.94679 32.5417 9.57709 32.7078 9.30917 32.9758L29.5833 53.25H45.8541C46.6717 53.25 47.3333 53.9116 47.3333 54.7292V65.0834H60.6458C61.4605 65.0834 62.125 64.4189 62.125 63.6042V34.0208C62.125 33.2061 61.4605 32.5417 60.6458 32.5417Z" fill="url(#paint4_linear)"/>
<path d="M44.375 56.2083H32.5417L39.9375 63.6042C40.7551 63.6042 41.4167 64.2658 41.4167 65.0834H44.375V56.2083Z" fill="url(#paint5_linear)"/>
<path d="M41.4167 47.3333H29.5834C28.7658 47.3333 28.1042 47.9949 28.1042 48.8125C28.1042 49.6301 28.7658 50.2917 29.5834 50.2917H41.4167C42.2343 50.2917 42.8959 49.6301 42.8959 48.8125C42.8958 47.9949 42.2343 47.3333 41.4167 47.3333Z" fill="#303C42"/>
<path d="M17.75 47.3333H13.3125C12.4949 47.3333 11.8333 47.9949 11.8333 48.8125C11.8333 49.6301 12.4949 50.2917 13.3125 50.2917H17.75C18.5676 50.2917 19.2292 49.6301 19.2292 48.8125C19.2292 47.9949 18.5676 47.3333 17.75 47.3333Z" fill="#303C42"/>
<path d="M25.1458 47.3333H22.1875C21.3699 47.3333 20.7083 47.9949 20.7083 48.8125C20.7083 49.6301 21.3699 50.2917 22.1875 50.2917H25.1458C25.9634 50.2917 26.625 49.6301 26.625 48.8125C26.625 47.9949 25.9634 47.3333 25.1458 47.3333Z" fill="#303C42"/>
<path d="M17.75 41.4167H13.3125C12.4949 41.4167 11.8333 42.0783 11.8333 42.8959C11.8333 43.7135 12.4949 44.375 13.3125 44.375H17.75C18.5676 44.375 19.2292 43.7134 19.2292 42.8958C19.2292 42.0782 18.5676 41.4167 17.75 41.4167Z" fill="#303C42"/>
<path d="M50.2917 47.3333H45.8542C45.0366 47.3333 44.375 47.9949 44.375 48.8125C44.375 49.6301 45.0366 50.2917 45.8542 50.2917H50.2917C51.1093 50.2917 51.7709 49.6301 51.7709 48.8125C51.7708 47.9949 51.1093 47.3333 50.2917 47.3333Z" fill="#303C42"/>
<path d="M57.6875 47.3333H54.7292C53.9116 47.3333 53.25 47.9949 53.25 48.8125C53.25 49.6301 53.9116 50.2917 54.7292 50.2917H57.6875C58.5051 50.2917 59.1667 49.6301 59.1667 48.8125C59.1667 47.9949 58.5051 47.3333 57.6875 47.3333Z" fill="#303C42"/>
<path d="M57.6875 41.4167H53.25C52.4324 41.4167 51.7708 42.0783 51.7708 42.8959C51.7708 43.7135 52.4324 44.375 53.25 44.375H57.6875C58.5051 44.375 59.1667 43.7134 59.1667 42.8958C59.1667 42.0782 58.5051 41.4167 57.6875 41.4167Z" fill="#303C42"/>
<path d="M13.3125 38.4583H16.2708C17.0884 38.4583 17.75 37.7967 17.75 36.9791C17.75 36.1615 17.0884 35.4999 16.2708 35.4999H13.3125C12.4949 35.4999 11.8333 36.1615 11.8333 36.9791C11.8333 37.7968 12.4949 38.4583 13.3125 38.4583Z" fill="#303C42"/>
<path d="M57.6875 35.5H56.2083C55.3907 35.5 54.7291 36.1616 54.7291 36.9792C54.7291 37.7968 55.3907 38.4584 56.2083 38.4584H57.6875C58.5051 38.4584 59.1667 37.7968 59.1667 36.9792C59.1667 36.1616 58.5051 35.5 57.6875 35.5Z" fill="#303C42"/>
<path d="M20.7083 38.4584C21.5252 38.4584 22.1875 37.7962 22.1875 36.9792C22.1875 36.1623 21.5252 35.5 20.7083 35.5C19.8913 35.5 19.2291 36.1623 19.2291 36.9792C19.2291 37.7962 19.8913 38.4584 20.7083 38.4584Z" fill="#303C42"/>
<path d="M25.1458 38.4584C25.9627 38.4584 26.625 37.7962 26.625 36.9792C26.625 36.1623 25.9627 35.5 25.1458 35.5C24.3288 35.5 23.6666 36.1623 23.6666 36.9792C23.6666 37.7962 24.3288 38.4584 25.1458 38.4584Z" fill="#303C42"/>
<path d="M29.5833 38.4584C30.4002 38.4584 31.0625 37.7962 31.0625 36.9792C31.0625 36.1623 30.4002 35.5 29.5833 35.5C28.7663 35.5 28.1041 36.1623 28.1041 36.9792C28.1041 37.7962 28.7663 38.4584 29.5833 38.4584Z" fill="#303C42"/>
<path d="M34.0208 38.4584C34.8377 38.4584 35.5 37.7962 35.5 36.9792C35.5 36.1623 34.8377 35.5 34.0208 35.5C33.2038 35.5 32.5416 36.1623 32.5416 36.9792C32.5416 37.7962 33.2038 38.4584 34.0208 38.4584Z" fill="#303C42"/>
<path d="M38.4583 38.4584C39.2752 38.4584 39.9375 37.7962 39.9375 36.9792C39.9375 36.1623 39.2752 35.5 38.4583 35.5C37.6413 35.5 36.9791 36.1623 36.9791 36.9792C36.9791 37.7962 37.6413 38.4584 38.4583 38.4584Z" fill="#303C42"/>
<path d="M42.8958 38.4584C43.7127 38.4584 44.375 37.7962 44.375 36.9792C44.375 36.1623 43.7127 35.5 42.8958 35.5C42.0788 35.5 41.4166 36.1623 41.4166 36.9792C41.4166 37.7962 42.0788 38.4584 42.8958 38.4584Z" fill="#303C42"/>
<path d="M47.3333 38.4584C48.1502 38.4584 48.8125 37.7962 48.8125 36.9792C48.8125 36.1623 48.1502 35.5 47.3333 35.5C46.5163 35.5 45.8541 36.1623 45.8541 36.9792C45.8541 37.7962 46.5163 38.4584 47.3333 38.4584Z" fill="#303C42"/>
<path d="M51.7708 38.4584C52.5877 38.4584 53.25 37.7962 53.25 36.9792C53.25 36.1623 52.5877 35.5 51.7708 35.5C50.9538 35.5 50.2916 36.1623 50.2916 36.9792C50.2916 37.7962 50.9538 38.4584 51.7708 38.4584Z" fill="#303C42"/>
<path d="M22.1875 44.375C23.0044 44.375 23.6667 43.7127 23.6667 42.8958C23.6667 42.0788 23.0044 41.4166 22.1875 41.4166C21.3705 41.4166 20.7083 42.0788 20.7083 42.8958C20.7083 43.7127 21.3705 44.375 22.1875 44.375Z" fill="#303C42"/>
<path d="M26.625 44.375C27.4419 44.375 28.1042 43.7127 28.1042 42.8958C28.1042 42.0788 27.4419 41.4166 26.625 41.4166C25.808 41.4166 25.1458 42.0788 25.1458 42.8958C25.1458 43.7127 25.808 44.375 26.625 44.375Z" fill="#303C42"/>
<path d="M31.0625 44.375C31.8794 44.375 32.5417 43.7127 32.5417 42.8958C32.5417 42.0788 31.8794 41.4166 31.0625 41.4166C30.2455 41.4166 29.5833 42.0788 29.5833 42.8958C29.5833 43.7127 30.2455 44.375 31.0625 44.375Z" fill="#303C42"/>
<path d="M35.5 44.375C36.3169 44.375 36.9792 43.7127 36.9792 42.8958C36.9792 42.0788 36.3169 41.4166 35.5 41.4166C34.6831 41.4166 34.0208 42.0788 34.0208 42.8958C34.0208 43.7127 34.6831 44.375 35.5 44.375Z" fill="#303C42"/>
<path d="M39.9375 44.375C40.7544 44.375 41.4167 43.7127 41.4167 42.8958C41.4167 42.0788 40.7544 41.4166 39.9375 41.4166C39.1205 41.4166 38.4583 42.0788 38.4583 42.8958C38.4583 43.7127 39.1205 44.375 39.9375 44.375Z" fill="#303C42"/>
<path d="M44.375 44.375C45.1919 44.375 45.8542 43.7127 45.8542 42.8958C45.8542 42.0788 45.1919 41.4166 44.375 41.4166C43.558 41.4166 42.8958 42.0788 42.8958 42.8958C42.8958 43.7127 43.558 44.375 44.375 44.375Z" fill="#303C42"/>
<path d="M48.8125 44.375C49.6294 44.375 50.2917 43.7127 50.2917 42.8958C50.2917 42.0788 49.6294 41.4166 48.8125 41.4166C47.9955 41.4166 47.3333 42.0788 47.3333 42.8958C47.3333 43.7127 47.9955 44.375 48.8125 44.375Z" fill="#303C42"/>
<path d="M64.3322 2.95829H6.66776C2.99018 2.95829 0 5.94847 0 9.62619C0 10.2473 0.0866699 10.8656 0.257098 11.4607L5.0557 28.2487C5.3899 29.4228 6.09851 30.4057 6.99835 31.1503C6.33356 31.9263 5.91657 32.9211 5.91657 34.0209V63.6042C5.91657 66.0512 7.90707 68.0417 10.3541 68.0417H60.6458C63.0928 68.0417 65.0833 66.0512 65.0833 63.6042V34.0208C65.0833 32.9211 64.6663 31.9266 64.0018 31.1506C64.9018 30.4063 65.6102 29.4242 65.9443 28.2515L70.7429 11.4607C70.9133 10.8655 71 10.2473 71 9.62619C71 5.94847 68.01 2.95829 64.3322 2.95829Z" fill="url(#paint6_linear)"/>
<defs>
<linearGradient id="paint0_linear" x1="5.72259" y1="2.87934" x2="62.2959" y2="29.2564" gradientUnits="userSpaceOnUse">
<stop stop-color="white" stop-opacity="0.2"/>
<stop offset="1" stop-color="white" stop-opacity="0"/>
</linearGradient>
<linearGradient id="paint1_linear" x1="15.496" y1="-4.44341" x2="55.5042" y2="35.5618" gradientUnits="userSpaceOnUse">
<stop stop-color="white" stop-opacity="0.2"/>
<stop offset="1" stop-color="white" stop-opacity="0"/>
</linearGradient>
<linearGradient id="paint2_linear" x1="22.4046" y1="19.8832" x2="64.4324" y2="61.911" gradientUnits="userSpaceOnUse">
<stop stop-opacity="0.1"/>
<stop offset="1" stop-opacity="0"/>
</linearGradient>
<linearGradient id="paint3_linear" x1="12.267" y1="30.0196" x2="54.296" y2="72.0486" gradientUnits="userSpaceOnUse">
<stop stop-opacity="0.1"/>
<stop offset="1" stop-opacity="0"/>
</linearGradient>
<linearGradient id="paint4_linear" x1="22.4046" y1="19.8832" x2="64.4324" y2="61.911" gradientUnits="userSpaceOnUse">
<stop stop-color="white" stop-opacity="0.2"/>
<stop offset="1" stop-color="white" stop-opacity="0"/>
</linearGradient>
<linearGradient id="paint5_linear" x1="35.5002" y1="53.2529" x2="45.8544" y2="63.607" gradientUnits="userSpaceOnUse">
<stop stop-color="white" stop-opacity="0.2"/>
<stop offset="1" stop-color="white" stop-opacity="0"/>
</linearGradient>
<linearGradient id="paint6_linear" x1="-3.76299" y1="16.2223" x2="71.3144" y2="51.2261" gradientUnits="userSpaceOnUse">
<stop stop-color="white" stop-opacity="0.2"/>
<stop offset="1" stop-color="white" stop-opacity="0"/>
</linearGradient>
</defs>
</svg>
