<svg width="213" height="54" viewBox="0 0 213 54" fill="none" xmlns="http://www.w3.org/2000/svg">
<path d="M59.8057 25.32C58.3257 25.32 56.9924 25.0133 55.8057 24.4C54.619 23.7733 53.6857 22.9067 53.0057 21.8C52.339 20.68 52.0057 19.4133 52.0057 18C52.0057 16.5867 52.339 15.3267 53.0057 14.22C53.6857 13.1 54.619 12.2333 55.8057 11.62C56.9924 10.9933 58.3257 10.68 59.8057 10.68C61.1657 10.68 62.379 10.92 63.4457 11.4C64.5124 11.88 65.3924 12.5733 66.0857 13.48L63.1057 16.14C62.239 15.0467 61.219 14.5 60.0457 14.5C59.059 14.5 58.2657 14.82 57.6657 15.46C57.0657 16.0867 56.7657 16.9333 56.7657 18C56.7657 19.0667 57.0657 19.92 57.6657 20.56C58.2657 21.1867 59.059 21.5 60.0457 21.5C61.219 21.5 62.239 20.9533 63.1057 19.86L66.0857 22.52C65.3924 23.4267 64.5124 24.12 63.4457 24.6C62.379 25.08 61.1657 25.32 59.8057 25.32ZM74.4955 25.32C72.9889 25.32 71.6355 25.0067 70.4355 24.38C69.2355 23.7533 68.2955 22.8867 67.6155 21.78C66.9355 20.66 66.5955 19.4 66.5955 18C66.5955 16.6 66.9355 15.3467 67.6155 14.24C68.2955 13.12 69.2355 12.2467 70.4355 11.62C71.6355 10.9933 72.9889 10.68 74.4955 10.68C76.0022 10.68 77.3555 10.9933 78.5555 11.62C79.7555 12.2467 80.6955 13.12 81.3755 14.24C82.0555 15.3467 82.3956 16.6 82.3956 18C82.3956 19.4 82.0555 20.66 81.3755 21.78C80.6955 22.8867 79.7555 23.7533 78.5555 24.38C77.3555 25.0067 76.0022 25.32 74.4955 25.32ZM74.4955 21.5C75.0822 21.5 75.6089 21.36 76.0755 21.08C76.5555 20.7867 76.9355 20.38 77.2155 19.86C77.4955 19.3267 77.6355 18.7067 77.6355 18C77.6355 17.2933 77.4955 16.68 77.2155 16.16C76.9355 15.6267 76.5555 15.22 76.0755 14.94C75.6089 14.6467 75.0822 14.5 74.4955 14.5C73.9089 14.5 73.3755 14.6467 72.8955 14.94C72.4289 15.22 72.0555 15.6267 71.7755 16.16C71.4955 16.68 71.3555 17.2933 71.3555 18C71.3555 18.7067 71.4955 19.3267 71.7755 19.86C72.0555 20.38 72.4289 20.7867 72.8955 21.08C73.3755 21.36 73.9089 21.5 74.4955 21.5ZM84.1087 11H91.0087C92.5687 11 93.942 11.2867 95.1287 11.86C96.3287 12.42 97.2553 13.2267 97.9087 14.28C98.5753 15.3333 98.9087 16.5733 98.9087 18C98.9087 19.4267 98.5753 20.6667 97.9087 21.72C97.2553 22.7733 96.3287 23.5867 95.1287 24.16C93.942 24.72 92.5687 25 91.0087 25H84.1087V11ZM90.8087 21.32C91.822 21.32 92.6287 21.0333 93.2287 20.46C93.842 19.8733 94.1487 19.0533 94.1487 18C94.1487 16.9467 93.842 16.1333 93.2287 15.56C92.6287 14.9733 91.822 14.68 90.8087 14.68H88.8287V21.32H90.8087ZM112.272 21.44V25H100.632V11H112.012V14.56H105.272V16.2H111.192V19.6H105.272V21.44H112.272ZM119.309 25.32C118.149 25.32 117.016 25.1933 115.909 24.94C114.816 24.6733 113.916 24.32 113.209 23.88L114.729 20.44C115.396 20.8267 116.142 21.14 116.969 21.38C117.796 21.6067 118.589 21.72 119.349 21.72C120.002 21.72 120.469 21.66 120.749 21.54C121.029 21.4067 121.169 21.2133 121.169 20.96C121.169 20.6667 120.982 20.4467 120.609 20.3C120.249 20.1533 119.649 19.9933 118.809 19.82C117.729 19.5933 116.829 19.3533 116.109 19.1C115.389 18.8333 114.762 18.4067 114.229 17.82C113.696 17.22 113.429 16.4133 113.429 15.4C113.429 14.52 113.676 13.72 114.169 13C114.662 12.28 115.396 11.7133 116.369 11.3C117.356 10.8867 118.549 10.68 119.949 10.68C120.909 10.68 121.849 10.7867 122.769 11C123.702 11.2 124.522 11.5 125.229 11.9L123.809 15.32C122.436 14.6267 121.136 14.28 119.909 14.28C118.696 14.28 118.089 14.5733 118.089 15.16C118.089 15.44 118.269 15.6533 118.629 15.8C118.989 15.9333 119.582 16.08 120.409 16.24C121.476 16.44 122.376 16.6733 123.109 16.94C123.842 17.1933 124.476 17.6133 125.009 18.2C125.556 18.7867 125.829 19.5867 125.829 20.6C125.829 21.48 125.582 22.28 125.089 23C124.596 23.7067 123.856 24.2733 122.869 24.7C121.896 25.1133 120.709 25.32 119.309 25.32ZM64.0435 38.56V40.96H69.8835V44.52H64.0435V49H59.3235V35H70.7035V38.56H64.0435ZM79.437 49.32C77.9303 49.32 76.577 49.0067 75.377 48.38C74.177 47.7533 73.237 46.8867 72.557 45.78C71.877 44.66 71.537 43.4 71.537 42C71.537 40.6 71.877 39.3467 72.557 38.24C73.237 37.12 74.177 36.2467 75.377 35.62C76.577 34.9933 77.9303 34.68 79.437 34.68C80.9436 34.68 82.297 34.9933 83.497 35.62C84.697 36.2467 85.637 37.12 86.317 38.24C86.997 39.3467 87.337 40.6 87.337 42C87.337 43.4 86.997 44.66 86.317 45.78C85.637 46.8867 84.697 47.7533 83.497 48.38C82.297 49.0067 80.9436 49.32 79.437 49.32ZM79.437 45.5C80.0236 45.5 80.5503 45.36 81.017 45.08C81.497 44.7867 81.877 44.38 82.157 43.86C82.437 43.3267 82.577 42.7067 82.577 42C82.577 41.2933 82.437 40.68 82.157 40.16C81.877 39.6267 81.497 39.22 81.017 38.94C80.5503 38.6467 80.0236 38.5 79.437 38.5C78.8503 38.5 78.317 38.6467 77.837 38.94C77.3703 39.22 76.997 39.6267 76.717 40.16C76.437 40.68 76.297 41.2933 76.297 42C76.297 42.7067 76.437 43.3267 76.717 43.86C76.997 44.38 77.3703 44.7867 77.837 45.08C78.317 45.36 78.8503 45.5 79.437 45.5ZM95.0501 45.48H93.7701V49H89.0501V35H95.7901C97.0834 35 98.2101 35.2133 99.1701 35.64C100.13 36.0667 100.87 36.68 101.39 37.48C101.91 38.28 102.17 39.2133 102.17 40.28C102.17 41.28 101.943 42.1533 101.49 42.9C101.037 43.6467 100.383 44.24 99.5301 44.68L102.47 49H97.4301L95.0501 45.48ZM97.4101 40.28C97.4101 39.76 97.2501 39.36 96.9301 39.08C96.6101 38.7867 96.1301 38.64 95.4901 38.64H93.7701V41.92H95.4901C96.1301 41.92 96.6101 41.78 96.9301 41.5C97.2501 41.2067 97.4101 40.8 97.4101 40.28ZM103.952 35H110.852C112.412 35 113.786 35.2867 114.972 35.86C116.172 36.42 117.099 37.2267 117.752 38.28C118.419 39.3333 118.752 40.5733 118.752 42C118.752 43.4267 118.419 44.6667 117.752 45.72C117.099 46.7733 116.172 47.5867 114.972 48.16C113.786 48.72 112.412 49 110.852 49H103.952V35ZM110.652 45.32C111.666 45.32 112.472 45.0333 113.072 44.46C113.686 43.8733 113.992 43.0533 113.992 42C113.992 40.9467 113.686 40.1333 113.072 39.56C112.472 38.9733 111.666 38.68 110.652 38.68H108.672V45.32H110.652Z" fill="white"/>
<path d="M59.3248 8.93045C58.9735 9.1319 58.5597 9.1319 58.2084 8.93045L53.2959 6.11389V9.90658C53.3582 9.96721 53.4244 10.0232 53.498 10.0687C55.0663 11.0364 56.8599 11.5872 58.7666 11.5872C60.6732 11.5872 62.4668 11.0364 64.0351 10.0687C64.1087 10.0232 64.175 9.96721 64.2372 9.90658V6.11383L59.3248 8.93045Z" fill="#6E60B8"/>
<path d="M55.4235 7.33377L53.2959 6.11392V9.90661C53.3582 9.96724 53.4244 10.0232 53.498 10.0687C54.1078 10.445 54.7521 10.7573 55.4235 10.9996V7.33377Z" fill="#6353B2"/>
<path d="M64.0352 9.93832C62.4669 10.906 60.6734 11.4568 58.7666 11.4568C56.8599 11.4568 55.0663 10.906 53.498 9.93826C53.4244 9.89282 53.3582 9.83681 53.2959 9.77618V10.9229C53.2959 11.3971 53.517 11.8405 53.8817 12.0656C55.3358 12.9628 56.9987 13.4734 58.7666 13.4734C60.5345 13.4734 62.1974 12.9628 63.6515 12.0656C64.0163 11.8405 64.2373 11.3971 64.2373 10.9229V9.77618C64.175 9.83688 64.1088 9.89288 64.0352 9.93832Z" fill="#9790CC"/>
<path d="M55.4235 10.8692C54.7521 10.6269 54.1078 10.3146 53.498 9.93829C53.4243 9.89285 53.3581 9.83684 53.2959 9.77621V10.923C53.2959 11.3971 53.517 11.8406 53.8817 12.0656C54.373 12.3687 54.8886 12.6265 55.4235 12.8366V10.8692H55.4235Z" fill="#8479C2"/>
<path d="M66.3955 4.20508L59.3247 0.15108C58.9734 -0.0503602 58.5597 -0.0503602 58.2084 0.15108L51.1376 4.20508C50.7319 4.43766 50.7319 5.1002 51.1376 5.33278L58.2084 9.38678C58.5597 9.58822 58.9734 9.58822 59.3247 9.38678L66.3955 5.33278C66.8012 5.1002 66.8012 4.43772 66.3955 4.20508Z" fill="#9790CC"/>
<path d="M60.7268 8.0351L53.39 3.82865C53.1311 3.68018 53.0321 3.36311 53.0917 3.08478L51.1376 4.2052C50.7319 4.43778 50.7319 5.10032 51.1376 5.3329L58.2084 9.3869C58.5596 9.58834 58.9734 9.58834 59.3247 9.3869L61.4202 8.18547C61.1843 8.20939 60.944 8.15971 60.7268 8.0351Z" fill="#8479C2"/>
<path d="M66.6997 10.9205C66.4637 10.9205 66.2724 10.7016 66.2724 10.4316V5.2579H59.498C59.262 5.2579 59.0707 5.03899 59.0707 4.76895C59.0707 4.49891 59.262 4.28 59.498 4.28H66.6997C66.9357 4.28 67.127 4.49891 67.127 4.76895V10.4315C67.127 10.7015 66.9357 10.9205 66.6997 10.9205Z" fill="#6353B2"/>
<path d="M67.9455 13.7528L67.4004 11.2427C67.2347 11.4775 66.9842 11.6307 66.6999 11.6307C66.4156 11.6307 66.1651 11.4775 65.9994 11.2427L65.4543 13.7529C65.3439 14.2346 65.6615 14.7055 66.0967 14.7055H67.3031C67.7382 14.7055 68.0558 14.2345 67.9455 13.7528Z" fill="#FEC458"/>
<path d="M66.4818 13.8181L66.9673 11.5821C66.8829 11.6128 66.7935 11.6308 66.6999 11.6308C66.4156 11.6308 66.1651 11.4776 65.9994 11.2429L65.4543 13.753C65.344 14.2347 65.6615 14.7056 66.0967 14.7056H66.8566C66.57 14.5608 66.3958 14.1933 66.4818 13.8181Z" fill="#F9AB49"/>
<path d="M58.7665 5.8348C59.2809 5.8348 59.6979 5.35762 59.6979 4.76899C59.6979 4.18036 59.2809 3.70319 58.7665 3.70319C58.2521 3.70319 57.8351 4.18036 57.8351 4.76899C57.8351 5.35762 58.2521 5.8348 58.7665 5.8348Z" fill="#8479C2"/>
<path d="M66.6997 11.7611C67.199 11.7611 67.6037 11.2979 67.6037 10.7266C67.6037 10.1552 67.199 9.69202 66.6997 9.69202C66.2004 9.69202 65.7956 10.1552 65.7956 10.7266C65.7956 11.2979 66.2004 11.7611 66.6997 11.7611Z" fill="#FFE181"/>
<path d="M66.6028 10.7265C66.6028 10.3213 66.8068 9.97155 67.1032 9.80176C66.9816 9.73214 66.8449 9.69196 66.6997 9.69196C66.2004 9.69196 65.7956 10.1551 65.7956 10.7264C65.7956 11.2978 66.2004 11.7609 66.6997 11.7609C66.8449 11.7609 66.9816 11.7208 67.1032 11.6512C66.8068 11.4815 66.6028 11.1317 66.6028 10.7265Z" fill="#FEC458"/>
</svg>
