<?xml version="1.0" standalone="no"?>
<!DOCTYPE svg PUBLIC "-//W3C//DTD SVG 20010904//EN"
 "http://www.w3.org/TR/2001/REC-SVG-20010904/DTD/svg10.dtd">
<svg version="1.0" xmlns="http://www.w3.org/2000/svg"
 width="700.000000pt" height="700.000000pt" viewBox="0 0 700.000000 700.000000"
 preserveAspectRatio="xMidYMid meet">
<metadata>
Created by potrace 1.11, written by Peter Selinger 2001-2013
</metadata>
<g transform="translate(0.000000,700.000000) scale(0.100000,-0.100000)"
fill="#000000" stroke="none">
<path d="M3121 6979 c-50 -16 -201 -113 -709 -452 -354 -238 -651 -436 -660
-442 -9 -5 -63 -41 -120 -80 -56 -38 -111 -74 -120 -80 -9 -5 -333 -221 -720
-479 -755 -503 -739 -491 -776 -603 -21 -62 -20 -167 2 -233 33 -99 43 -107
518 -424 247 -164 453 -303 458 -307 6 -6 11 -426 12 -1101 1 -1084 1 -1094
23 -1173 29 -110 82 -213 142 -279 51 -56 213 -171 373 -265 192 -113 417
-216 645 -295 119 -41 190 -61 396 -112 26 -6 195 -34 230 -38 22 -3 67 -8
100 -12 118 -13 432 -19 555 -10 68 5 172 16 200 21 14 3 41 7 60 10 19 3 58
10 85 15 28 5 61 11 75 14 60 10 245 60 360 97 304 99 618 255 907 451 127 86
192 156 242 262 78 162 74 98 75 1320 l1 1089 417 278 416 278 0 -1048 0
-1048 -45 -44 c-149 -145 -194 -408 -106 -629 l26 -64 -31 -171 c-17 -93 -54
-291 -81 -440 -28 -148 -60 -319 -71 -380 -12 -60 -25 -129 -29 -152 -5 -23
-7 -75 -6 -115 6 -127 60 -235 153 -302 l44 -31 295 -3 c177 -1 311 2 333 8
48 13 128 84 157 140 38 70 53 148 49 243 -3 48 -7 90 -9 94 -3 5 -8 24 -11
43 -3 19 -26 145 -52 280 -25 135 -48 256 -50 270 -23 126 -46 253 -54 290 -5
25 -12 59 -15 75 -3 17 -10 57 -16 90 -9 52 -8 66 9 105 10 25 23 59 27 75 4
17 10 37 13 45 2 8 6 60 8 115 5 169 -42 307 -140 407 l-50 51 -1 1231 0 1231
-27 57 c-35 74 -81 105 -163 110 l-60 4 -490 328 c-269 180 -498 334 -508 342
-9 8 -19 14 -21 14 -3 0 -421 278 -641 427 -27 18 -57 38 -65 43 -128 84 -283
188 -297 200 -7 5 -16 10 -22 10 -5 0 -11 3 -13 8 -3 6 -68 52 -110 77 -10 5
-45 29 -78 53 -33 23 -65 42 -69 42 -5 0 -11 3 -13 8 -2 6 -284 196 -350 237
-9 5 -75 50 -147 98 -170 115 -219 137 -318 142 -61 4 -92 1 -142 -16z"/>
</g>
</svg>
