<svg width="74" height="74" viewBox="0 0 74 74" fill="none" xmlns="http://www.w3.org/2000/svg">
<circle cx="37" cy="37" r="37" fill="#5BC3F8"/>
<path d="M36.6186 33.024C41.3546 33.024 44.8426 33.968 47.0826 35.856C49.3546 37.744 50.4906 40.272 50.4906 43.44C50.4906 45.488 49.9786 47.36 48.9546 49.056C47.9306 50.72 46.3626 52.064 44.2506 53.088C42.1706 54.08 39.5946 54.576 36.5226 54.576C34.1546 54.576 31.8186 54.272 29.5146 53.664C27.2426 53.024 25.3066 52.128 23.7066 50.976L26.7786 45.024C28.0586 45.984 29.5306 46.736 31.1946 47.28C32.8586 47.792 34.5706 48.048 36.3306 48.048C38.2826 48.048 39.8186 47.664 40.9386 46.896C42.0586 46.128 42.6186 45.056 42.6186 43.68C42.6186 42.24 42.0266 41.152 40.8426 40.416C39.6906 39.68 37.6746 39.312 34.7946 39.312H26.2026L27.9306 20.4H48.4266V26.64H34.4106L33.8826 33.024H36.6186Z" fill="white"/>
</svg>
