<svg width="74" height="74" viewBox="0 0 74 74" fill="none" xmlns="http://www.w3.org/2000/svg">
<circle cx="37" cy="37" r="37" fill="#5BC3F8"/>
<path d="M50.3198 47.664V54H24.9277V48.96L37.8878 36.72C39.2638 35.408 40.1918 34.288 40.6718 33.36C41.1518 32.4 41.3918 31.456 41.3918 30.528C41.3918 29.184 40.9278 28.16 39.9998 27.456C39.1038 26.72 37.7758 26.352 36.0157 26.352C34.5438 26.352 33.2158 26.64 32.0318 27.216C30.8478 27.76 29.8558 28.592 29.0558 29.712L23.3918 26.064C24.7038 24.112 26.5118 22.592 28.8158 21.504C31.1198 20.384 33.7598 19.824 36.7358 19.824C39.2318 19.824 41.4078 20.24 43.2638 21.072C45.1518 21.872 46.6078 23.024 47.6318 24.528C48.6878 26 49.2158 27.744 49.2158 29.76C49.2158 31.584 48.8318 33.296 48.0638 34.896C47.2958 36.496 45.8078 38.32 43.5998 40.368L35.8718 47.664H50.3198Z" fill="white"/>
</svg>
