<svg width="74" height="74" viewBox="0 0 74 74" fill="none" xmlns="http://www.w3.org/2000/svg">
<circle cx="37" cy="37" r="37" fill="#5BC3F8"/>
<path d="M40.8649 34.08C43.8089 34.56 46.0649 35.664 47.6329 37.392C49.2009 39.088 49.9849 41.2 49.9849 43.728C49.9849 45.68 49.4729 47.488 48.4489 49.152C47.4249 50.784 45.8569 52.096 43.7449 53.088C41.6649 54.08 39.1049 54.576 36.0649 54.576C33.6969 54.576 31.3609 54.272 29.0569 53.664C26.7849 53.024 24.8489 52.128 23.2489 50.976L26.2729 45.024C27.5529 45.984 29.0249 46.736 30.6889 47.28C32.3849 47.792 34.1129 48.048 35.8729 48.048C37.8249 48.048 39.3609 47.68 40.4809 46.944C41.6009 46.176 42.1609 45.104 42.1609 43.728C42.1609 40.976 40.0649 39.6 35.8729 39.6H32.3209V34.464L39.2329 26.64H24.9289V20.4H48.4489V25.44L40.8649 34.08Z" fill="white"/>
</svg>
