<svg width="53" height="35" xmlns="http://www.w3.org/2000/svg">
 <!-- Created with SVG Editor - http://github.com/mzalive/SVG Editor/ -->

 <g>
  <title>background</title>
  <rect fill="none" id="canvas_background" height="37" width="55" y="-1" x="-1"/>
  <g display="none" overflow="visible" y="0" x="0" height="100%" width="100%" id="canvasGrid">
   <rect fill="url(#gridpattern)" stroke-width="0" y="0" x="0" height="100%" width="100%"/>
  </g>
 </g>
 <g>
  <title>Layer 1</title>
  <g id="svg_17">
   <path id="svg_4" fill="white" d="m8.394579,16.234852c-0.926422,0 -1.761047,-0.191986 -2.503906,-0.575896c-0.742828,-0.392303 -1.327057,-0.934769 -1.752747,-1.627548c-0.417328,-0.701096 -0.625977,-1.494019 -0.625977,-2.378708c0,-0.884705 0.208649,-1.673431 0.625977,-2.366196c0.42569,-0.701096 1.009918,-1.243637 1.752747,-1.627548c0.742859,-0.392303 1.577484,-0.588425 2.503906,-0.588425c0.851349,0 1.61084,0.150238 2.278564,0.450714c0.667725,0.300461 1.218597,0.734451 1.652588,1.302032l-1.865417,1.6651c-0.542542,-0.684387 -1.18103,-1.026611 -1.915497,-1.026611c-0.617645,0 -1.114227,0.200317 -1.489807,0.600937c-0.37561,0.392303 -0.563385,0.922256 -0.563385,1.589996c0,0.667725 0.187775,1.201874 0.563385,1.602493c0.37558,0.392303 0.872162,0.588425 1.489807,0.588425c0.734467,0 1.372955,-0.342224 1.915497,-1.026611l1.865417,1.665115c-0.43399,0.567566 -0.984863,1.001556 -1.652588,1.302032c-0.667725,0.30046 -1.427216,0.450698 -2.278564,0.450698zm9.195496,0c-0.943085,0 -1.790283,-0.196121 -2.541473,-0.588424c-0.75116,-0.392288 -1.3396,-0.934769 -1.765259,-1.627533c-0.425659,-0.701096 -0.638489,-1.489838 -0.638489,-2.366196c0,-0.876373 0.21283,-1.660919 0.638489,-2.353683c0.425659,-0.701096 1.014099,-1.247757 1.765259,-1.64006c0.75119,-0.392303 1.598389,-0.588425 2.541473,-0.588425c0.943176,0 1.790314,0.196121 2.541473,0.588425c0.75119,0.392303 1.3396,0.938965 1.765259,1.64006c0.425659,0.692764 0.63855,1.47731 0.63855,2.353683c0,0.876358 -0.212891,1.6651 -0.63855,2.366196c-0.425659,0.692764 -1.014069,1.235245 -1.765259,1.627533c-0.75116,0.392303 -1.598297,0.588424 -2.541473,0.588424zm0,-2.391234c0.367279,0 0.69696,-0.087631 0.989044,-0.262909c0.300476,-0.183594 0.538361,-0.438187 0.713623,-0.763702c0.175262,-0.333832 0.262909,-0.721939 0.262909,-1.164307c0,-0.442383 -0.087646,-0.826294 -0.262909,-1.15181c-0.175262,-0.333832 -0.413147,-0.588409 -0.713623,-0.763687c-0.292084,-0.183594 -0.621765,-0.275436 -0.989044,-0.275436c-0.367188,0 -0.70108,0.091843 -1.001556,0.275436c-0.292084,0.175278 -0.525818,0.429855 -0.701111,0.763687c-0.175262,0.325516 -0.262909,0.709427 -0.262909,1.15181c0,0.442368 0.087646,0.830475 0.262909,1.164307c0.175293,0.325516 0.409027,0.580109 0.701111,0.763702c0.300476,0.175278 0.634369,0.262909 1.001556,0.262909zm6.01767,-6.572769l4.319244,0c0.976532,0 1.836182,0.179474 2.57901,0.538345c0.75119,0.35054 1.331207,0.855515 1.740232,1.514862c0.417267,0.659348 0.625977,1.435562 0.625977,2.328644c0,0.893082 -0.20871,1.669296 -0.625977,2.328629c-0.409025,0.659348 -0.989042,1.168518 -1.740232,1.52739c-0.742828,0.350555 -1.602478,0.525817 -2.57901,0.525817l-4.319244,0l0,-8.763686zm4.194031,6.460098c0.634308,0 1.139282,-0.179474 1.514893,-0.538345c0.383911,-0.367264 0.575867,-0.880569 0.575867,-1.539902c0,-0.659348 -0.191956,-1.168518 -0.575867,-1.52739c-0.37561,-0.367264 -0.880585,-0.550858 -1.514893,-0.550858l-1.239441,0l0,4.156494l1.239441,0zm13.435545,0.075119l0,2.228469l-7.286377,0l0,-8.763686l7.123657,0l0,2.228485l-4.219116,0l0,1.026596l3.705811,0l0,2.128326l-3.705811,0l0,1.15181l4.381836,0zm4.405029,2.428786c-0.726135,0 -1.435364,-0.079315 -2.128326,-0.237868c-0.684204,-0.166946 -1.247589,-0.388107 -1.690155,-0.663544l0.951477,-2.153366c0.417542,0.242065 0.884521,0.438187 1.402222,0.588425c0.51767,0.141907 1.014069,0.21283 1.489807,0.21283c0.408783,0 0.701111,-0.037552 0.876373,-0.112671c0.175262,-0.08345 0.262909,-0.204514 0.262909,-0.363068c0,-0.183594 -0.117065,-0.32132 -0.350525,-0.413147c-0.225372,-0.091827 -0.600952,-0.191986 -1.12677,-0.300461c-0.676056,-0.141922 -1.239441,-0.292145 -1.690155,-0.450714c-0.450714,-0.166946 -0.84317,-0.43399 -1.176849,-0.801254c-0.333618,-0.37558 -0.500763,-0.880554 -0.500763,-1.514862c0,-0.550858 0.154633,-1.051636 0.463226,-1.50235c0.308594,-0.450699 0.768066,-0.805435 1.377136,-1.064163c0.617859,-0.258713 1.364655,-0.388107 2.241028,-0.388107c0.600922,0 1.189331,0.066803 1.765259,0.200317c0.584015,0.125198 1.097321,0.312988 1.539886,0.563385l-0.888885,2.140839c-0.859467,-0.43399 -1.673248,-0.651016 -2.441315,-0.651016c-0.759308,0 -1.139282,0.183594 -1.139282,0.550858c0,0.175278 0.112671,0.308792 0.338043,0.400635c0.225342,0.083435 0.596558,0.175262 1.114227,0.275421c0.667908,0.125198 1.231293,0.27124 1.690155,0.438187c0.458832,0.158569 0.855713,0.421478 1.189331,0.788742c0.342407,0.367249 0.513306,0.868042 0.513306,1.502335c0,0.550873 -0.154602,1.051651 -0.463226,1.50235c-0.308594,0.442383 -0.77182,0.797058 -1.389648,1.064163c-0.6091,0.258712 -1.352112,0.388106 -2.228485,0.388106zm-34.594999,8.287949l0,1.50235l3.655731,0l0,2.228485l-3.655731,0l0,2.804382l-2.95462,0l0,-8.763702l7.123657,0l0,2.228485l-4.169037,0zm9.635986,6.735519c-0.943146,0 -1.790283,-0.196121 -2.541473,-0.588409c-0.75116,-0.392303 -1.339569,-0.934784 -1.765228,-1.627548c-0.42569,-0.701096 -0.638519,-1.489822 -0.638519,-2.366196c0,-0.876373 0.21283,-1.660904 0.638519,-2.353683c0.425659,-0.701096 1.014069,-1.247757 1.765228,-1.64006c0.75119,-0.392303 1.598328,-0.588409 2.541473,-0.588409c0.943115,0 1.790314,0.196106 2.541473,0.588409c0.75119,0.392303 1.3396,0.938965 1.765259,1.64006c0.42569,0.69278 0.638519,1.47731 0.638519,2.353683c0,0.876373 -0.21283,1.6651 -0.638519,2.366196c-0.425659,0.692764 -1.014069,1.235245 -1.765259,1.627548c-0.75116,0.392288 -1.598358,0.588409 -2.541473,0.588409zm0,-2.391235c0.367218,0 0.69693,-0.087631 0.989044,-0.262909c0.300476,-0.183594 0.538361,-0.438187 0.713623,-0.763687c0.175293,-0.333847 0.262909,-0.721939 0.262909,-1.164322c0,-0.442383 -0.087616,-0.826294 -0.262909,-1.151794c-0.175262,-0.333832 -0.413147,-0.588425 -0.713623,-0.763702c-0.292114,-0.183594 -0.621826,-0.275421 -0.989044,-0.275421c-0.367249,0 -0.70108,0.091827 -1.001556,0.275421c-0.292145,0.175278 -0.525818,0.429871 -0.70108,0.763702c-0.175293,0.3255 -0.262909,0.709412 -0.262909,1.151794c0,0.442383 0.087616,0.830475 0.262909,1.164322c0.175262,0.3255 0.408936,0.580093 0.70108,0.763687c0.300476,0.175278 0.634308,0.262909 1.001556,0.262909zm9.773468,-0.012512l-0.801239,0l0,2.203445l-2.95462,0l0,-8.763702l4.219086,0c0.80957,0 1.51486,0.13353 2.115812,0.400635c0.600861,0.267105 1.064087,0.651016 1.389587,1.151794c0.325531,0.500778 0.488281,1.085007 0.488281,1.752731c0,0.625977 -0.14209,1.172653 -0.425659,1.640076c-0.283569,0.467407 -0.692963,0.838806 -1.226868,1.114227l1.840332,2.704239l-3.154875,0l-1.489838,-2.203445zm1.477325,-3.255096c0,-0.3255 -0.100159,-0.575897 -0.300476,-0.75116c-0.200317,-0.183609 -0.500793,-0.275436 -0.901428,-0.275436l-1.07666,0l0,2.053207l1.07666,0c0.400635,0 0.701111,-0.087631 0.901428,-0.262909c0.200317,-0.183594 0.300476,-0.438187 0.300476,-0.763702zm4.09506,-3.305161l4.319244,0c0.976532,0 1.836639,0.179474 2.579041,0.538345c0.75119,0.35054 1.331451,0.85553 1.740204,1.514862c0.417542,0.659348 0.625977,1.435562 0.625977,2.328644c0,0.893082 -0.208435,1.669296 -0.625977,2.328644c-0.408752,0.659332 -0.989014,1.168503 -1.740204,1.527374c-0.742401,0.350555 -1.602509,0.525833 -2.579041,0.525833l-4.319244,0l0,-8.763702zm4.194061,6.460098c0.634735,0 1.139282,-0.179474 1.514862,-0.538345c0.384338,-0.367264 0.575897,-0.880554 0.575897,-1.539902c0,-0.659348 -0.191559,-1.168518 -0.575897,-1.52739c-0.37558,-0.367264 -0.880127,-0.550858 -1.514862,-0.550858l-1.239441,0l0,4.156494l1.239441,0z"/>
   <path id="svg_5" fill="#6E60B8" d="m8.093554,5.975362c-0.21991,0.126099 -0.478943,0.126099 -0.698822,0l-3.075134,-1.763107l0,2.37413c0.039001,0.037964 0.080444,0.073013 0.126526,0.101486c0.981689,0.605759 2.104462,0.950546 3.298004,0.950546c1.193512,0 2.316254,-0.344788 3.297974,-0.950546c0.046082,-0.028473 0.087585,-0.063522 0.126495,-0.101486l0,-2.374176l-3.075043,1.763153z"/>
   <path id="svg_6" fill="#6353B2" d="m5.651415,4.975865l-1.331818,-0.763596l0,2.374146c0.039001,0.037949 0.080444,0.072983 0.126526,0.101456c0.381714,0.235565 0.785034,0.431046 1.205292,0.582733l0,-2.294739z"/>
   <path id="svg_7" fill="#9790CC" d="m11.042162,6.606267c-0.98172,0.605743 -2.104401,0.950531 -3.298035,0.950531c-1.193542,0 -2.316315,-0.344788 -3.298004,-0.950577c-0.046082,-0.028442 -0.087524,-0.063507 -0.126526,-0.101456l0,0.717819c0,0.296844 0.138397,0.574402 0.366699,0.715302c0.910217,0.56163 1.951172,0.881256 3.057831,0.881256c1.106659,0 2.147614,-0.319626 3.057861,-0.881256c0.228333,-0.1409 0.366669,-0.418457 0.366669,-0.715302l0,-0.717819c-0.038971,0.037994 -0.080414,0.073044 -0.126495,0.101501z"/>
   <path id="svg_8" fill="#8479C2" d="m5.651415,7.18897c-0.420258,-0.151672 -0.823578,-0.347168 -1.205292,-0.582733c-0.046143,-0.028442 -0.087585,-0.063507 -0.126526,-0.101456l0,0.717865c0,0.296783 0.138397,0.574402 0.366699,0.71524c0.307556,0.189743 0.63031,0.35112 0.965118,0.482635l0,-1.231552l0,0z"/>
   <path id="svg_9" fill="#9790CC" d="m12.51967,3.017385l-4.426178,-2.53772c-0.21991,-0.126099 -0.478882,-0.126099 -0.698761,0l-4.426178,2.53772c-0.253967,0.145584 -0.253967,0.560318 0,0.705902l4.426178,2.53772c0.219879,0.126099 0.478851,0.126099 0.698761,0l4.426178,-2.53772c0.253937,-0.145584 0.253937,-0.560287 0,-0.705902z"/>
   <path id="svg_10" fill="#8479C2" d="m8.971178,5.414891l-4.592682,-2.633148c-0.162048,-0.092941 -0.22403,-0.291412 -0.186707,-0.465652l-1.223236,0.70137c-0.253967,0.145584 -0.253967,0.560318 0,0.705902l4.426178,2.53772c0.219818,0.126099 0.478851,0.126099 0.698761,0l1.311737,-0.752075c-0.147675,0.014984 -0.298096,-0.016113 -0.434052,-0.094116z"/>
   <path id="svg_11" fill="#6353B2" d="m12.71007,7.221089c-0.147736,0 -0.267456,-0.137039 -0.267456,-0.306046l0,-3.238617l-4.240631,0c-0.147736,0 -0.267487,-0.137039 -0.267487,-0.306076c0,-0.169037 0.119751,-0.306076 0.267487,-0.306076l4.508087,0c0.147736,0 0.267487,0.137039 0.267487,0.306076l0,3.544632c0,0.169006 -0.119751,0.306107 -0.267487,0.306107z"/>
   <path id="svg_12" fill="#FEC458" d="m13.489916,8.994039l-0.341217,-1.571259c-0.103729,0.146973 -0.260529,0.242874 -0.438507,0.242874c-0.177948,0 -0.334747,-0.095901 -0.438477,-0.242874l-0.341217,1.57132c-0.069122,0.301544 0.1297,0.596313 0.40213,0.596313l0.755157,0c0.272369,0 0.471191,-0.294846 0.40213,-0.596375z"/>
   <path id="svg_13" fill="#F9AB49" d="m12.573687,9.034917l0.303894,-1.399689c-0.052826,0.019226 -0.108765,0.030487 -0.167389,0.030487c-0.177948,0 -0.334747,-0.095901 -0.438477,-0.242813l-0.341217,1.571259c-0.069061,0.301544 0.1297,0.596313 0.40213,0.596313l0.475677,0c-0.179413,-0.090637 -0.288452,-0.320694 -0.234619,-0.555557z"/>
   <path id="svg_14" fill="#8479C2" d="m7.744066,4.037541c0.322021,0 0.583038,-0.298691 0.583038,-0.66716c0,-0.368484 -0.261017,-0.667175 -0.583038,-0.667175c-0.321991,0 -0.583038,0.298691 -0.583038,0.667175c0,0.368469 0.261047,0.66716 0.583038,0.66716z"/>
   <path id="svg_15" fill="#FFE181" d="m12.71007,7.747273c0.312561,0 0.565887,-0.289948 0.565887,-0.647568c0,-0.357681 -0.253326,-0.647629 -0.565887,-0.647629c-0.312531,0 -0.565948,0.289948 -0.565948,0.647629c0,0.35762 0.253418,0.647568 0.565948,0.647568z"/>
   <path id="svg_16" fill="#FEC458" d="m12.649431,7.099645c0,-0.253647 0.127686,-0.47258 0.313232,-0.578873c-0.076111,-0.043579 -0.161682,-0.068726 -0.252594,-0.068726c-0.312531,0 -0.565948,0.289917 -0.565948,0.647537c0,0.357681 0.253418,0.647568 0.565948,0.647568c0.090912,0 0.176483,-0.025101 0.252594,-0.068665c-0.185547,-0.106232 -0.313232,-0.325195 -0.313232,-0.578842z"/>
  </g>
 </g>
</svg>